<svg width="640" height="596" viewBox="0 0 640 596" fill="none" xmlns="http://www.w3.org/2000/svg">
<path fill-rule="evenodd" clip-rule="evenodd" d="M467.15 5.70074C530.754 29.4327 539.773 114.894 570.043 175.659C598.397 232.58 647.588 285.996 638.1 348.876C628.683 411.28 567.523 448.765 522.205 492.689C479.876 533.716 442.601 594.502 383.66 595.491C324.849 596.478 292.134 528.492 242.211 497.388C201.388 471.955 153.896 462.817 118.479 430.276C69.466 385.243 5.03713 341.692 0.482862 275.289C-4.16468 207.525 41.7225 141.881 95.8883 100.899C146.077 62.9261 215.821 81.8702 276.784 66.238C342.902 49.2841 403.2 -18.1605 467.15 5.70074Z" fill="#DBEAFF"/>
</svg>
