<svg width="631" height="577" viewBox="0 0 631 577" fill="none" xmlns="http://www.w3.org/2000/svg">
<path fill-rule="evenodd" clip-rule="evenodd" d="M308.885 575.919C241.306 582.376 195.838 509.453 142.052 468.032C91.6699 429.231 24.0787 402.689 5.12726 341.987C-13.6809 281.744 24.9428 221.296 46.5024 161.982C66.6402 106.579 73.596 35.615 126.175 8.96195C178.639 -17.6325 237.781 29.2149 296.278 35.3679C344.111 40.3993 390.82 27.8584 436.899 41.6454C500.666 60.7245 577.65 71.7322 610.772 129.465C644.571 188.381 631.993 267.479 601.19 328.015C572.648 384.107 501.639 397.554 453.641 438.261C401.584 482.41 376.833 569.427 308.885 575.919Z" fill="#DBEAFF"/>
</svg>
